<svg id="e54ea92b-faf3-4406-abaf-da31f33b26a3" data-name="Calque 1" xmlns="http://www.w3.org/2000/svg" viewBox="0 0 33 34"><title>calendar</title><path d="M29.7,2.6H25.8V.8A.9.9,0,0,0,25,0a.9.9,0,0,0-.9.8V2.6H20.2V.8a.9.9,0,0,0-.9-.8.9.9,0,0,0-.8.8V2.6h-4V.8a.8.8,0,1,0-1.6,0V2.6h-4V.8A.9.9,0,0,0,8.1,0a.9.9,0,0,0-.9.8V2.6H3.3A3.2,3.2,0,0,0,0,5.8v25A3.3,3.3,0,0,0,3.3,34H29.7A3.3,3.3,0,0,0,33,30.8V5.8A3.2,3.2,0,0,0,29.7,2.6Zm1.7,28.2a1.7,1.7,0,0,1-1.7,1.6H3.3a1.6,1.6,0,0,1-1.6-1.6V5.8A1.6,1.6,0,0,1,3.3,4.2H7.2V6.9a.9.9,0,0,0,.9.8.9.9,0,0,0,.8-.8V4.2h4V6.9a.8.8,0,0,0,1.6,0V4.2h4V6.9a.9.9,0,0,0,.8.8.9.9,0,0,0,.9-.8V4.2h3.9V6.9a.9.9,0,0,0,.9.8.9.9,0,0,0,.8-.8V4.2h3.9a1.7,1.7,0,0,1,1.7,1.6Z" style="fill:#353535"/><rect x="7" y="12" width="2.2" height="2.22" style="fill:#353535"/><rect x="12.6" y="12" width="2.2" height="2.22" style="fill:#353535"/><rect x="18.3" y="12" width="2.2" height="2.22" style="fill:#353535"/><rect x="23.9" y="12" width="2.2" height="2.22" style="fill:#353535"/><rect x="7" y="18" width="2.2" height="2.22" style="fill:#353535"/><rect x="12.6" y="18" width="2.2" height="2.22" style="fill:#353535"/><rect x="18.3" y="18" width="2.2" height="2.22" style="fill:#353535"/><rect x="23.9" y="18" width="2.2" height="2.22" style="fill:#353535"/><rect x="7" y="23.7" width="2.2" height="2.22" style="fill:#353535"/><rect x="12.6" y="23.7" width="2.2" height="2.22" style="fill:#353535"/><rect x="18.3" y="23.7" width="2.2" height="2.22" style="fill:#353535"/><rect x="23.9" y="23.7" width="2.2" height="2.22" style="fill:#353535"/></svg>