<?xml version="1.0" encoding="utf-8"?>
<!-- Generator: Adobe Illustrator 23.0.1, SVG Export Plug-In . SVG Version: 6.00 Build 0)  -->
<svg version="1.1" id="Calque_1" xmlns="http://www.w3.org/2000/svg" xmlns:xlink="http://www.w3.org/1999/xlink" x="0px" y="0px"
	 viewBox="0 0 200 200" style="enable-background:new 0 0 200 200;" xml:space="preserve">
<style type="text/css">
	.st0{fill:#3A579E;}
</style>
<path class="st0" d="M187,2H12C6.5,2,2,6.5,2,12v175c0,5.5,4.5,10,10,10h175c5.5,0,10-4.5,10-10V12C197,6.5,192.5,2,187,2z
	 M118.5,69.7h-9.6c0,0-3.1-0.3-3.1,3.6v10.8h12.6l-1.1,14.5h-11.5v45.2H85.9V98.6h-9V84.2h9c0,0,0,3.2,0-13.5
	c0-16.3,18.9-15.5,19-15.5h13.6V69.7z"/>
</svg>
