<?xml version="1.0" encoding="utf-8"?>
<!-- Generator: Adobe Illustrator 21.1.0, SVG Export Plug-In . SVG Version: 6.00 Build 0)  -->
<svg version="1.1" id="Calque_1" xmlns="http://www.w3.org/2000/svg" xmlns:xlink="http://www.w3.org/1999/xlink" x="0px" y="0px"
	 viewBox="0 0 50.7 49.2" style="enable-background:new 0 0 50.7 49.2;" xml:space="preserve">
<style type="text/css">
	.st0{fill:#6DA5D7;}
</style>
<title>icon-entreprise</title>
<g id="Calque_2">
	<g id="Calque_1-2">
		<path class="st0" d="M27.8,46.9h-26v-42h26V46.9z M2.8,45.9h24v-40h-24V45.9z"/>
		<path class="st0" d="M11.9,40.8H7.6v-7h4.3L11.9,40.8z M8.6,39.8h2.3v-5H8.6L8.6,39.8z"/>
		<path class="st0" d="M11.9,29.6H7.6v-7h4.3L11.9,29.6z M8.6,28.6h2.3v-5H8.6L8.6,28.6z"/>
		<path class="st0" d="M17.6,29.6h-4.3v-7h4.3V29.6z M14.3,28.6h2.3v-5h-2.3L14.3,28.6z"/>
		<path class="st0" d="M23.2,29.6H19v-7h4.3L23.2,29.6z M20,28.6h2.3v-5H20L20,28.6z"/>
		<path class="st0" d="M11.4,32.4H8.1c-0.3,0-0.5-0.2-0.5-0.5s0.2-0.5,0.5-0.5h3.3c0.3,0,0.5,0.2,0.5,0.5S11.7,32.4,11.4,32.4
			L11.4,32.4z"/>
		<path class="st0" d="M17.6,44.8h-4.3v-11h4.3V44.8z M14.3,43.8h2.3v-9h-2.3L14.3,43.8z"/>
		<path class="st0" d="M17.1,32.4h-3.3c-0.3,0-0.5-0.2-0.5-0.5s0.2-0.5,0.5-0.5h3.3c0.3,0,0.5,0.2,0.5,0.5S17.4,32.4,17.1,32.4z"/>
		<path class="st0" d="M23.2,40.8H19v-7h4.3L23.2,40.8z M20,39.8h2.3v-5H20L20,39.8z"/>
		<path class="st0" d="M22.8,32.4h-3.3c-0.3,0-0.5-0.2-0.5-0.5s0.2-0.5,0.5-0.5h3.3c0.3,0,0.5,0.2,0.5,0.5S23,32.4,22.8,32.4z"/>
		<path class="st0" d="M11.9,17.9H7.6v-7h4.3L11.9,17.9z M8.6,16.9h2.3v-5H8.6L8.6,16.9z"/>
		<path class="st0" d="M17.6,17.9h-4.3v-7h4.3V17.9z M14.3,16.9h2.3v-5h-2.3L14.3,16.9z"/>
		<path class="st0" d="M23.2,17.9H19v-7h4.3L23.2,17.9z M20,16.9h2.3v-5H20L20,16.9z"/>
		<path class="st0" d="M11.4,20.8H8.1c-0.3,0-0.5-0.2-0.5-0.5s0.2-0.5,0.5-0.5h3.3c0.3,0,0.5,0.2,0.5,0.5S11.7,20.8,11.4,20.8
			L11.4,20.8z"/>
		<path class="st0" d="M17.1,20.8h-3.3c-0.3,0-0.5-0.2-0.5-0.5s0.2-0.5,0.5-0.5h3.3c0.3,0,0.5,0.2,0.5,0.5S17.4,20.8,17.1,20.8z"/>
		<path class="st0" d="M22.8,20.8h-3.3c-0.3,0-0.5-0.2-0.5-0.5s0.2-0.5,0.5-0.5h3.3c0.3,0,0.5,0.2,0.5,0.5S23,20.8,22.8,20.8z"/>
		<path class="st0" d="M29.7,5.9H0V2.6h29.7V5.9z M1,4.9h27.7V3.6H1V4.9z"/>
		<path class="st0" d="M29.7,49.2H0v-3.3h29.7V49.2z M1,48.2h27.7v-1.3H1V48.2z"/>
		<path class="st0" d="M48.8,46.4h-22v-36h22V46.4z M27.8,45.4h20v-34h-20V45.4z"/>
		<path class="st0" d="M36.9,37h-4.3v-7h4.3L36.9,37z M33.6,36h2.3v-5h-2.3L33.6,36z"/>
		<path class="st0" d="M36.9,29.1h-4.3V22h4.3L36.9,29.1z M33.6,28.1h2.3V23h-2.3L33.6,28.1z"/>
		<path class="st0" d="M42.6,29.1h-4.3V22h4.3V29.1z M39.3,28.1h2.3V23h-2.3V28.1z"/>
		<path class="st0" d="M42.6,41h-4.3V30h4.3V41z M39.3,40h2.3v-9h-2.3V40z"/>
		<path class="st0" d="M36.9,21.2h-4.3v-7h4.3L36.9,21.2z M33.6,20.2h2.3v-5h-2.3L33.6,20.2z"/>
		<path class="st0" d="M42.6,21.2h-4.3v-7h4.3V21.2z M39.3,20.2h2.3v-5h-2.3V20.2z"/>
		<path class="st0" d="M41.6,11.3h-3.3V0h3.3V11.3z M39.2,10.3h1.3V1h-1.3V10.3z"/>
		<path class="st0" d="M45.6,11.3h-3.3V4h3.3V11.3z M43.2,10.3h1.3V5h-1.3V10.3z"/>
		<path class="st0" d="M50.7,48.7H28v-3.3h22.7V48.7z M29,47.7h20.7v-1.3H29V47.7z"/>
	</g>
</g>
</svg>
