<?xml version="1.0" encoding="utf-8"?>
<!-- Generator: Adobe Illustrator 21.1.0, SVG Export Plug-In . SVG Version: 6.00 Build 0)  -->
<svg version="1.1" id="Calque_1" xmlns="http://www.w3.org/2000/svg" xmlns:xlink="http://www.w3.org/1999/xlink" x="0px" y="0px"
	 viewBox="0 0 35.4 33.4" style="enable-background:new 0 0 35.4 33.4;" xml:space="preserve">
<style type="text/css">
	.st0{fill:#6DA5D7;}
	.st1{fill:#FFFFFF;}
</style>
<g id="Calque_2">
	<g id="Calque_1-2">
		<path class="st0" d="M35.4,15.9H0V3.4h35.4V15.9z M1,14.9h33.4V4.4H1V14.9z"/>
		<polygon class="st1" points="1.7,32.4 1.7,15.3 5.2,15.3 18.6,2.7 31.3,15.3 33.7,15.3 33.7,32.2 		"/>
		<path class="st0" d="M1.2,32.9V14.8H5L18.6,2l12.8,12.9h2.8v17.9L1.2,32.9z M2.2,15.8v16l31-0.2V15.8h-2.2L18.6,3.4L5.4,15.8H2.2z
			"/>
		<path class="st0" d="M31.5,4.5h-4.2V0.3h4.2L31.5,4.5z M28.3,3.5h2.2V1.3h-2.2L28.3,3.5z"/>
		<path class="st0" d="M32.5,1h-6C26.2,1,26,0.8,26,0.5S26.2,0,26.5,0h6C32.8,0,33,0.2,33,0.5S32.8,1,32.5,1z"/>
		<path class="st0" d="M22.2,32.4h-8.1V21.6h8.1V32.4z M15.1,31.4h6.1v-8.8h-6.1L15.1,31.4z"/>
		<rect x="13.8" y="30.5" class="st1" width="9.1" height="2.4"/>
		<path class="st0" d="M23.4,33.4H13.3V30h10.1V33.4z M14.3,32.4h8.1V31h-8.1L14.3,32.4z"/>
		<path class="st0" d="M30.3,22.7h-4.8v-4.5h4.8V22.7z M26.5,21.7h2.8v-2.5h-2.8L26.5,21.7z"/>
		<path class="st0" d="M20.1,16.6h-4.8v-4.5h4.8L20.1,16.6z M16.4,15.6h2.8v-2.5h-2.8L16.4,15.6z"/>
		<path class="st0" d="M9.3,22.7H4.5v-4.5h4.8V22.7z M5.5,21.7h2.8v-2.5H5.5V21.7z"/>
	</g>
</g>
</svg>
