<?xml version="1.0" encoding="utf-8"?>
<!-- Generator: Adobe Illustrator 21.1.0, SVG Export Plug-In . SVG Version: 6.00 Build 0)  -->
<svg version="1.1" id="Calque_1" xmlns="http://www.w3.org/2000/svg" xmlns:xlink="http://www.w3.org/1999/xlink" x="0px" y="0px"
	 viewBox="0 0 58 58.9" style="enable-background:new 0 0 58 58.9;" xml:space="preserve">
<style type="text/css">
	.st0{fill:#6DA5D7;}
</style>
<title>icon-europe</title>
<g id="Calque_2">
	<g id="Calque_1-2">
		<path class="st0" d="M25.8,58.9l1.3-4.8l-3.6-2.6h4.3l1.2-4.3l1.8,4.3h3.9L31.8,54l2,4.9l-4.3-3L25.8,58.9z M26.7,52.5l1.6,1.1
			l-0.7,2.5l1.9-1.6l2,1.4l-1-2.3l1.4-1.1h-1.8l-0.9-2.2l-0.6,2.2L26.7,52.5z"/>
		<path class="st0" d="M25.8,11.7l1.3-4.8l-3.6-2.6h4.3L29,0l1.8,4.3h3.9l-2.9,2.4l2,4.9l-4.3-3L25.8,11.7z M26.7,5.3l1.6,1.1
			l-0.7,2.5l1.9-1.6l2,1.5l-1-2.3l1.4-1.1h-1.8l-0.9-2.2l-0.6,2.2L26.7,5.3z"/>
		<path class="st0" d="M37.6,15.4l1.3-4.8L35.2,8h4.3l1.2-4.3L42.5,8h3.9l-2.9,2.4l2,4.9l-4.3-3L37.6,15.4z M38.4,9l1.6,1.2
			l-0.7,2.5l1.9-1.6l2,1.4l-1-2.3L43.7,9h-1.8l-0.9-2.2L40.3,9H38.4z"/>
		<path class="st0" d="M45.8,23.9l1.3-4.8l-3.6-2.6h4.3l1.2-4.3l1.8,4.3h3.9L51.8,19l2,4.9l-4.3-3L45.8,23.9z M46.7,17.5l1.6,1.1
			l-0.7,2.5l1.9-1.6l2,1.4l-1-2.3l1.4-1.1h-1.8l-0.9-2.2l-0.6,2.2H46.7z"/>
		<path class="st0" d="M49.1,35.7l1.3-4.8l-3.6-2.5h4.3l1.2-4.3l1.8,4.3h4l-3,2.4l2,4.9l-4.3-3L49.1,35.7z M49.9,29.3l1.6,1.1
			l-0.7,2.5l1.9-1.6l2,1.5l-1-2.3l1.4-1.1h-1.8l-0.9-2.2l-0.6,2.2L49.9,29.3z"/>
		<path class="st0" d="M46.1,47.7l1.3-4.8l-3.6-2.5h4.3l1.2-4.3l1.8,4.3h4l-3,2.4l2,4.9l-4.3-3L46.1,47.7z M46.9,41.3l1.6,1.1
			l-0.7,2.5l1.9-1.6l2,1.5l-1-2.3l1.4-1.1h-1.8l-0.9-2.2l-0.6,2.2L46.9,41.3z"/>
		<path class="st0" d="M37.6,55.7l1.3-4.8l-3.6-2.5h4.3l1.2-4.3l1.8,4.3h3.9l-2.9,2.4l2,4.9l-4.3-3L37.6,55.7z M38.4,49.3l1.6,1.1
			l-0.7,2.5l1.9-1.6l2,1.5l-1-2.3l1.4-1.1h-1.8l-0.9-2.2l-0.6,2.2L38.4,49.3z"/>
		<path class="st0" d="M13.8,55.7l1.3-4.8l-3.6-2.6h4.3L17,44l1.8,4.3h3.9l-2.9,2.4l2,4.9l-4.3-3L13.8,55.7z M14.7,49.3l1.6,1.1
			l-0.7,2.5l1.9-1.6l2,1.5l-1-2.3l1.4-1.1h-1.8l-0.9-2.2l-0.6,2.2L14.7,49.3z"/>
		<path class="st0" d="M5.6,47.2l1.3-4.8l-3.6-2.6h4.3l1.2-4.3l1.8,4.3h3.9l-2.9,2.4l2,4.9l-4.3-3L5.6,47.2z M6.4,40.8L8,41.9
			l-0.7,2.5l1.9-1.6l2.1,1.5l-1-2.3l1.4-1.1H9.9l-0.9-2.2l-0.6,2.2L6.4,40.8z"/>
		<path class="st0" d="M5.8,24.4l1.3-4.8L3.5,17h4.3L9,12.7l1.8,4.2h3.9l-2.9,2.4l2,4.9l-4.3-3L5.8,24.4z M6.7,18l1.6,1.1l-0.7,2.5
			L9.5,20l2.1,1.5l-1-2.3l1.4-1.1h-1.8l-0.9-2.2L8.6,18H6.7z"/>
		<path class="st0" d="M14.3,15.4l1.3-4.8L12,8h4.3l1.2-4.3L19.3,8h3.9l-2.9,2.4l2,4.9l-4.3-3L14.3,15.4z M15.1,9l1.6,1.1l-0.7,2.5
			L18,11l2,1.4l-1-2.3L20.4,9h-1.8l-0.9-2.2L17.1,9H15.1z"/>
		<path class="st0" d="M2.3,35.7l1.3-4.8L0,28.3h4.3L5.5,24l1.8,4.3h3.9l-2.9,2.4l2,4.9l-4.3-3L2.3,35.7z M3.2,29.3l1.6,1.1
			l-0.7,2.5L6,31.3l2.1,1.5l-1-2.3l1.4-1.1H6.6l-0.9-2.2l-0.6,2.2H3.2z"/>
	</g>
</g>
</svg>
