<?xml version="1.0" encoding="utf-8"?>
<!-- Generator: Adobe Illustrator 21.1.0, SVG Export Plug-In . SVG Version: 6.00 Build 0)  -->
<svg version="1.1" id="Calque_1" xmlns="http://www.w3.org/2000/svg" xmlns:xlink="http://www.w3.org/1999/xlink" x="0px" y="0px"
	 viewBox="0 0 40.6 29.4" style="enable-background:new 0 0 40.6 29.4;" xml:space="preserve">
<style type="text/css">
	.st0{fill:#76A8D9;}
</style>
<title>ion-voyage</title>
<g id="Calque_2">
	<g id="Calque_1-2">
		<path class="st0" d="M37.7,29.4L37.7,29.4L2.9,29.2c-1.6,0-2.9-1.3-2.9-2.9c0,0,0,0,0,0v-18c0-1.6,1.3-2.8,2.9-2.8l34.8,0.2
			c1.6,0,2.9,1.3,2.9,2.9v18C40.6,28.2,39.3,29.4,37.7,29.4z M2.9,6.5C1.9,6.5,1,7.3,1,8.4c0,0,0,0,0,0v18c0,1,0.9,1.8,1.9,1.8
			l34.8,0.2c1,0,1.9-0.8,1.9-1.9c0,0,0,0,0,0v-18c0-1-0.9-1.9-1.9-1.9c0,0,0,0,0,0L2.9,6.5z"/>
		<rect x="9.2" y="6" class="st0" width="1" height="22.3"/>
		<rect x="7.1" y="6" class="st0" width="1" height="22.3"/>
		<rect x="32.1" y="6" class="st0" width="1" height="22.3"/>
		<rect x="30" y="6" class="st0" width="1" height="22.3"/>
		<path class="st0" d="M27,6.5h-2.5C24.2,6.5,24,6.3,24,6c0,0,0,0,0,0V3.5h-7.4V6c0,0.3-0.2,0.5-0.5,0.5h-2.5
			c-0.3,0-0.5-0.2-0.5-0.5V3.4c0,0,0-0.1,0-0.2c0-1.8,1.4-3.2,3.2-3.2h7.9c1.8,0,3.2,1.4,3.2,3.2c0,0,0,0,0,0V6
			C27.5,6.3,27.3,6.5,27,6.5C27,6.5,27,6.5,27,6.5z M25,5.5h1.5V3.2c0-1.2-1-2.2-2.2-2.2c0,0,0,0,0,0h-7.9c-1.2,0-2.2,1-2.2,2.2l0,0
			c0,0,0,0.1,0,0.2v2.2h1.5V3.3c0,0,0-0.1,0-0.1c0-0.4,0.3-0.7,0.7-0.7l0,0h7.9c0.4,0,0.7,0.3,0.7,0.7L25,5.5z"/>
	</g>
</g>
</svg>
