<?xml version="1.0" encoding="utf-8"?>
<!-- Generator: Adobe Illustrator 21.1.0, SVG Export Plug-In . SVG Version: 6.00 Build 0)  -->
<svg version="1.1" id="Calque_1" xmlns="http://www.w3.org/2000/svg" xmlns:xlink="http://www.w3.org/1999/xlink" x="0px" y="0px"
	 viewBox="0 0 40.8 37.4" style="enable-background:new 0 0 40.8 37.4;" xml:space="preserve">
<style type="text/css">
	.st0{fill:#6DA5D7;}
</style>
<title>icon-declaration</title>
<g id="Calque_2">
	<g id="Calque_1-2">
		<path class="st0" d="M36.3,31.5h-0.8c-0.5,0-1.1-0.4-1.9-3.2c-0.4-1.2-0.6-2.4-0.8-3.6V4.9c0-1.2,1-2.1,2.1-2.1l0,0h1.6
			c1.2,0,2.3,0.9,2.4,2.1v19.8c-0.1,1.2-0.4,2.5-0.8,3.6C37.3,31.1,36.8,31.5,36.3,31.5z M35.6,30.5h0.6c0.6-0.5,1.8-5,1.8-5.8V4.9
			c0-0.6-0.8-1.1-1.4-1.1h-1.6c-0.6,0-1.1,0.5-1.1,1.1c0,0,0,0,0,0v19.8C33.8,25.5,35,30,35.6,30.5z"/>
		<path class="st0" d="M40.2,15.5c-0.3,0-0.5-0.2-0.5-0.5V6.5c0-0.4-0.6-0.8-1.1-0.8v-1H39c0.1,0,0.2,0,0.3,0.1
			c0.8,0.2,1.3,0.9,1.4,1.7V15C40.7,15.3,40.5,15.5,40.2,15.5z"/>
		<path class="st0" d="M38.4,15.5h-5.1c-0.3,0-0.5-0.2-0.5-0.5s0.2-0.5,0.5-0.5h5.1c0.3,0,0.5,0.2,0.5,0.5S38.7,15.5,38.4,15.5z"/>
		<path class="st0" d="M28.2,37.4H0.5c-0.3,0-0.5-0.2-0.5-0.5V0.5C0,0.2,0.2,0,0.5,0h27.7c0.3,0,0.5,0.2,0.5,0.5v36.4
			C28.7,37.1,28.5,37.4,28.2,37.4z M1,36.4h26.7V1H1V36.4z"/>
		<rect x="4.9" y="8.6" class="st0" width="13.8" height="1"/>
		<rect x="4.9" y="15" class="st0" width="13.8" height="1"/>
		<rect x="4.9" y="18.1" class="st0" width="13.8" height="1"/>
		<rect x="4.9" y="21.2" class="st0" width="13.8" height="1"/>
		<rect x="4.9" y="24.3" class="st0" width="13.8" height="1"/>
		<rect x="21.1" y="15" class="st0" width="2.7" height="1"/>
		<rect x="21.1" y="18.1" class="st0" width="2.7" height="1"/>
		<rect x="21.1" y="21.2" class="st0" width="2.7" height="1"/>
		<rect x="17.4" y="29.5" class="st0" width="6.4" height="1"/>
		<path class="st0" d="M35.5,30.9h0.8c0.4,0,0.8-0.9,1.2-2h-3.1C34.7,30,35.1,30.9,35.5,30.9"/>
	</g>
</g>
</svg>
