<?xml version="1.0" encoding="utf-8"?>
<!-- Generator: Adobe Illustrator 21.1.0, SVG Export Plug-In . SVG Version: 6.00 Build 0)  -->
<svg version="1.1" id="Calque_1" xmlns="http://www.w3.org/2000/svg" xmlns:xlink="http://www.w3.org/1999/xlink" x="0px" y="0px"
	 viewBox="0 0 33.8 33.8" style="enable-background:new 0 0 33.8 33.8;" xml:space="preserve">
<style type="text/css">
	.st0{fill:#6DA5D7;}
</style>
<path class="st0" d="M33.8,16.6c0-2.6-0.7-5.1-1.8-7.3c-0.2-0.3-0.4-0.7-0.6-1c-2.9-5-8.2-8.1-14-8.2h-0.5h-0.5
	c-5.8,0.1-11.1,3.3-14,8.2C2.2,8.5,2,8.9,1.8,9.2C0.7,11.5,0,14,0,16.6c0,0.1,0,0.2,0,0.3s0,0.5,0,0.7c0.1,3.1,1.1,6.1,2.8,8.7
	c0.2,0.3,0.5,0.7,0.7,1c3.1,4,7.8,6.3,12.8,6.5h0.5h0.5c5-0.1,9.7-2.5,12.8-6.5c0.3-0.3,0.5-0.7,0.7-1c1.7-2.6,2.7-5.6,2.8-8.7
	c0-0.2,0-0.5,0-0.7S33.8,16.7,33.8,16.6z M32.8,16.6h-5c0-2.5-0.4-4.9-1-7.3h4C32,11.5,32.7,14,32.8,16.6z M8.1,9.2h8.3v7.3H7.1
	C7.1,14.1,7.4,11.6,8.1,9.2z M16.4,17.6v8.7H8.6c-1-2.8-1.5-5.7-1.6-8.7H16.4z M17.4,17.6h9.3c0,3-0.6,5.9-1.5,8.7h-7.8L17.4,17.6z
	 M17.4,16.6V9.2h8.3c0.7,2.4,1,4.9,1,7.3H17.4z M30.2,8.2h-3.8c-0.6-2.1-1.6-4-2.9-5.8C26.3,3.8,28.6,5.8,30.2,8.2z M21.6,1.7
	c1.7,1.8,3,4.1,3.8,6.5h-8V1C18.8,1,20.3,1.3,21.6,1.7z M16.4,1v7.3h-8c0.7-2.4,2-4.7,3.8-6.5C13.5,1.3,14.9,1.1,16.4,1z M10.2,2.5
	C8.9,4.2,8,6.2,7.3,8.2H3.6C5.2,5.8,7.5,3.8,10.2,2.5z M3,9.2h4c-0.6,2.4-1,4.9-1,7.3H1C1.1,14,1.7,11.5,3,9.2z M1,17.6h5
	c0,3,0.6,5.9,1.5,8.7H4.1C2.2,23.7,1.1,20.7,1,17.6z M4.8,27.2H8c0.6,1.4,1.3,2.8,2.2,4C8.2,30.3,6.4,28.9,4.8,27.2L4.8,27.2z
	 M12.1,32c-1.3-1.4-2.4-3-3.1-4.8h7.4v5.5C14.9,32.7,13.5,32.4,12.1,32z M17.4,32.7v-5.5h7.4C24,29,23,30.6,21.6,32
	C20.3,32.4,18.8,32.7,17.4,32.7L17.4,32.7z M23.6,31.2c0.9-1.2,1.7-2.6,2.2-4h3.1C27.4,28.9,25.6,30.3,23.6,31.2L23.6,31.2z
	 M29.7,26.2h-3.5c1-2.8,1.5-5.7,1.5-8.7h5C32.6,20.7,31.5,23.7,29.7,26.2L29.7,26.2z"/>
</svg>
