<?xml version="1.0" encoding="utf-8"?>
<!-- Generator: Adobe Illustrator 21.1.0, SVG Export Plug-In . SVG Version: 6.00 Build 0)  -->
<svg version="1.1" id="Calque_1" xmlns="http://www.w3.org/2000/svg" xmlns:xlink="http://www.w3.org/1999/xlink" x="0px" y="0px"
	 viewBox="0 0 27.4 30.9" style="enable-background:new 0 0 27.4 30.9;" xml:space="preserve">
<style type="text/css">
	.st0{fill:#76A8D9;}
</style>
<title>icon-transport</title>
<g id="Calque_2">
	<g id="Calque_1-2">
		<path class="st0" d="M25.8,27.6h-24V3.3C1.8,1.4,4.3,0,6.1,0h16.3c1.8,0,3.3,1.5,3.3,3.3V27.6z M2.8,26.6h22V3.3
			c0-1.3-1-2.3-2.3-2.3H6.1C4.7,1,2.8,2.1,2.8,3.3V26.6z"/>
		<path class="st0" d="M0.5,13.2C0.2,13.2,0,13,0,12.7V6.5C0,6.2,0.2,6,0.5,6S1,6.2,1,6.5v6.3C1,13,0.8,13.2,0.5,13.2z"/>
		<path class="st0" d="M26.9,13.2c-0.3,0-0.5-0.2-0.5-0.5V6.5c0-0.3,0.2-0.5,0.5-0.5s0.5,0.2,0.5,0.5v6.3
			C27.4,13,27.2,13.2,26.9,13.2z"/>
		<path class="st0" d="M17,3.1h-6.2c-0.3,0-0.5-0.2-0.5-0.5s0.2-0.5,0.5-0.5H17c0.3,0,0.5,0.2,0.5,0.5S17.3,3.1,17,3.1z"/>
		<path class="st0" d="M25.2,19.4H2.9c-0.3,0-0.5-0.2-0.5-0.5s0.2-0.5,0.5-0.5h22.4c0.3,0,0.5,0.2,0.5,0.5S25.5,19.4,25.2,19.4z"/>
		<path class="st0" d="M25.2,4.7H2.9c-0.3,0-0.5-0.2-0.5-0.5c0-0.3,0.2-0.5,0.5-0.5h22.4c0.3,0,0.5,0.2,0.5,0.5
			C25.8,4.5,25.5,4.7,25.2,4.7z"/>
		<path class="st0" d="M5.9,30.9c-1.8,0-3.2-1.4-3.2-3.2l0,0v-0.2c0-0.3,0.2-0.5,0.5-0.5s0.5,0.2,0.5,0.5v0.2c0,1.2,1,2.2,2.2,2.2
			s2.2-1,2.2-2.2l0,0v-0.2c0-0.3,0.2-0.5,0.5-0.5s0.5,0.2,0.5,0.5v0.2C9.1,29.5,7.7,30.9,5.9,30.9C5.9,30.9,5.9,30.9,5.9,30.9z"/>
		<path class="st0" d="M22,30.9c-1.8,0-3.2-1.4-3.2-3.2l0,0v-0.2c0-0.3,0.2-0.5,0.5-0.5s0.5,0.2,0.5,0.5v0.2c0,1.2,1,2.2,2.2,2.2
			c1.2,0,2.2-1,2.2-2.2v-0.2c0-0.3,0.2-0.5,0.5-0.5s0.5,0.2,0.5,0.5v0.2C25.2,29.5,23.8,30.9,22,30.9z"/>
		<path class="st0" d="M21.4,25h-0.9c-1.3,0-2.4-1.1-2.4-2.4c0-1.3,1.1-2.4,2.4-2.4h0.9c1.3,0,2.4,1.1,2.4,2.4
			C23.8,23.9,22.8,25,21.4,25z M20.5,21.2c-0.8,0-1.4,0.6-1.4,1.4s0.6,1.4,1.4,1.4h0.9c0.8,0,1.4-0.6,1.4-1.4s-0.6-1.4-1.4-1.4H20.5
			z"/>
		<path class="st0" d="M7.9,25H7c-1.3,0-2.4-1.1-2.4-2.4c0-1.3,1.1-2.4,2.4-2.4h0.9c1.3,0,2.4,1.1,2.4,2.4C10.3,23.9,9.2,25,7.9,25
			L7.9,25z M7,21.1c-0.8,0-1.4,0.6-1.4,1.4C5.6,23.4,6.2,24,7,24l0,0h0.9c0.8,0,1.4-0.6,1.4-1.4s-0.6-1.4-1.4-1.4l0,0L7,21.1z"/>
	</g>
</g>
</svg>
