<?xml version="1.0" encoding="utf-8"?>
<!-- Generator: Adobe Illustrator 21.1.0, SVG Export Plug-In . SVG Version: 6.00 Build 0)  -->
<svg version="1.1" id="Calque_1" xmlns="http://www.w3.org/2000/svg" xmlns:xlink="http://www.w3.org/1999/xlink" x="0px" y="0px"
	 viewBox="0 0 49.8 57.5" style="enable-background:new 0 0 49.8 57.5;" xml:space="preserve">
<style type="text/css">
	.st0{fill:#6DA5D7;}
</style>
<title>icon-independant</title>
<g id="Calque_2">
	<g id="Calque_1-2">
		<path class="st0" d="M24.7,23.1c-1.4,0-2.5-0.6-2.5-1.5c0-0.3,0.2-0.5,0.5-0.5s0.5,0.2,0.5,0.5c0,0.1,0.5,0.5,1.5,0.5
			s1.5-0.4,1.5-0.5c0-0.3,0.2-0.5,0.5-0.5s0.5,0.2,0.5,0.5C27.2,22.5,26.1,23.1,24.7,23.1z"/>
		<path class="st0" d="M28.2,11.4c-4.2,0-11.4-6-11.7-6.2c-0.2-0.2-0.2-0.5-0.1-0.7c0.2-0.2,0.5-0.2,0.7-0.1
			c2.3,1.9,8.9,6.7,11.8,5.9c1.2-0.4,2.4-0.9,3.5-1.5c1-0.6,1.8-1,3-0.7c0.3,0.1,0.4,0.4,0.4,0.6c-0.1,0.3-0.4,0.4-0.6,0.4
			c-0.7-0.2-1.2,0-2.2,0.6c-1.2,0.7-2.4,1.2-3.7,1.6C28.8,11.4,28.5,11.4,28.2,11.4z"/>
		<path class="st0" d="M25,38.8c-0.1,0-0.2,0-0.3-0.1l-6-4c-0.1-0.1-0.2-0.3-0.2-0.4V31c0-0.3,0.2-0.5,0.5-0.5s0.5,0.2,0.5,0.5v3
			l5.5,3.6l5.5-4.4v-2c0-0.3,0.2-0.5,0.5-0.5s0.5,0.2,0.5,0.5v2.2c0,0.2-0.1,0.3-0.2,0.4l-6,4.8C25.2,38.7,25.1,38.8,25,38.8z"/>
		<path class="st0" d="M25,57.5c-8.2,0-16.4-1.6-24-4.8l-0.7-0.3C0.1,52.4,0,52.2,0,52c0.8-7.8,3.6-18.2,18.5-18.2H19
			c0.3,0,0.5,0.2,0.5,0.5s-0.2,0.5-0.5,0.5l0,0C4.8,34.5,1.9,43.6,1,51.7l0.3,0.1c7.5,3.1,15.6,4.7,23.7,4.7c12.1,0,18-2.5,23.6-5
			h0.1c-0.8-8.9-3.8-12-6.5-14.3C39.6,35,31,34,30.9,34c-0.3,0-0.5-0.3-0.4-0.6s0.3-0.5,0.6-0.4c0.4,0,8.9,1,11.8,3.4
			s6.2,5.8,6.9,15.3c0,0.2-0.1,0.4-0.3,0.5L49,52.4C43.3,54.9,37.3,57.5,25,57.5z"/>
		<path class="st0" d="M25,33.4c-1.2,0-2.4-0.2-3.5-0.7c-3.9-1.6-7-6-8-11.5H13c-1.1,0-2-1.4-2-3.2s0.9-3.2,2-3.2h0.2
			c0.2-5.9,1.5-9.8,4-12.1c1.9-1.8,4.6-2.7,8-2.6C32.6,0.2,36.5,5,37,14.7c1,0.2,1.8,1.5,1.8,3.2s-0.9,3.2-2,3.2h-0.2
			c-1,4.8-3.5,8.9-6.8,10.8C28.4,33,26.7,33.4,25,33.4z M14,20.2c0.2,0,0.4,0.2,0.5,0.4c0.9,5.4,3.8,9.6,7.5,11.2
			c2.4,1,5.1,0.8,7.3-0.6c3.1-1.9,5.5-5.8,6.4-10.5c0-0.2,0.2-0.4,0.4-0.4l0.6-0.1c0.5,0,1.1-0.9,1.1-2.2s-0.6-2.2-1-2.2h-0.1h-0.3
			c-0.2,0-0.4-0.2-0.4-0.5C35.6,5.7,32.2,1.2,25,1c-3.1-0.1-5.5,0.7-7.3,2.3c-2.3,2.2-3.5,6-3.6,12c0,0.3-0.2,0.5-0.5,0.5
			c0,0,0,0,0,0l-0.6-0.1c-0.4,0-0.9,0.9-0.9,2.2s0.6,2.2,1,2.2L14,20.2L14,20.2z"/>
	</g>
</g>
</svg>
