<?xml version="1.0" encoding="utf-8"?>
<!-- Generator: Adobe Illustrator 21.1.0, SVG Export Plug-In . SVG Version: 6.00 Build 0)  -->
<svg version="1.1" id="Calque_1" xmlns="http://www.w3.org/2000/svg" xmlns:xlink="http://www.w3.org/1999/xlink" x="0px" y="0px"
	 viewBox="0 0 28.5 35.2" style="enable-background:new 0 0 28.5 35.2;" xml:space="preserve">
<style type="text/css">
	.st0{fill:#6DA5D7;}
</style>
<title>icon-avantages</title>
<g id="Calque_2">
	<g id="Calque_1-2">
		<path class="st0" d="M22.6,35.2h-0.2c-5.1,0-7.9-0.1-8.1-0.1h-0.3c0,0-2.8,0.1-8.1,0.1H5.9l-0.1-0.1C1.5,32.1-0.1,28.4,0,22
			C0.1,16.3,8.6,8.7,10.5,7l-4-4.7L6.8,2c0.9-0.9,2.3-1.2,3.4-0.7c1,0.4,1.2,0.2,1.7-0.3c0.6-0.7,1.4-1,2.3-1c0.9,0,1.7,0.3,2.3,1
			c0.5,0.5,0.7,0.7,1.7,0.3c1.2-0.5,2.6-0.2,3.4,0.7L22,2.3L18,7c2,1.7,10.4,9.3,10.5,15c0.1,6.4-1.5,10.1-5.8,13.1L22.6,35.2z
			 M7.9,2.4l4,4.7l-0.4,0.3C11.5,7.5,1.1,16.2,1,22c-0.1,6.1,1.3,9.4,5.2,12.2c5.1,0,7.9-0.1,7.9-0.1h0.3c0,0,2.8,0.1,7.9,0.1
			c3.9-2.8,5.3-6.1,5.2-12.2C27.4,16.2,17.1,7.5,17,7.5l-0.4-0.3l4-4.7c-0.6-0.4-1.3-0.5-2-0.2c-0.9,0.6-2.1,0.3-2.8-0.5
			C15.5,1.3,14.9,1,14.3,1c-0.6,0-1.2,0.2-1.6,0.7C12,2.6,10.8,2.8,9.9,2.2C9.2,1.9,8.5,2,7.9,2.4z"/>
		<path class="st0" d="M18.7,7.9H9.7c-0.6,0-1-0.4-1-1s0.4-1,1-1h9.1c0.6,0,1,0.4,1,1S19.3,7.9,18.7,7.9z"/>
		<path class="st0" d="M8.3,20.5h1.8c0.9-1.9,2.8-3.2,4.9-3.1c2.6,0,4.1,1.5,4.1,2.8c0,0.8-0.6,1.5-1.4,1.5c0,0,0,0,0,0
			c-0.7,0-1.3-0.6-1.3-1.3c0,0,0,0,0,0c0-0.3,0.1-0.6,0.3-0.8c-0.5-0.3-1.1-0.5-1.7-0.4c-1.1,0-2.2,0.5-2.8,1.4h2.7v1.5h-3.3
			c0,0.2,0,0.3,0,0.5c0,0.2,0,0.3,0,0.5h3.3v1.5h-2.7c0.6,1,1.7,1.5,2.9,1.5c1.1,0,2.1-0.5,2.8-1.3l1.2,1.3c-1,1.1-2.5,1.8-4.1,1.8
			c-2.2,0.1-4.2-1.2-5-3.2H8.3v-1.6h1.4c0-0.2,0-0.3,0-0.5c0-0.2,0-0.4,0-0.6H8.3V20.5z"/>
	</g>
</g>
</svg>
