<?xml version="1.0" encoding="utf-8"?>
<!-- Generator: Adobe Illustrator 21.1.0, SVG Export Plug-In . SVG Version: 6.00 Build 0)  -->
<svg version="1.1" id="Calque_1" xmlns="http://www.w3.org/2000/svg" xmlns:xlink="http://www.w3.org/1999/xlink" x="0px" y="0px"
	 viewBox="0 0 72.3 35.5" style="enable-background:new 0 0 72.3 35.5;" xml:space="preserve">
<style type="text/css">
	.st0{fill:#6DA5D7;}
</style>
<title>icon-asbl</title>
<g id="Calque_2">
	<g id="Calque_1-2">
		<path class="st0" d="M57.8,15.9c-0.9,0-1.6-0.4-1.6-1.1c0-0.3,0.2-0.5,0.5-0.5c0.3,0,0.5,0.2,0.5,0.5c0.4,0.2,0.9,0.2,1.3,0
			c0-0.3,0.3-0.5,0.5-0.5s0.5,0.3,0.5,0.5l0,0C59.5,15.5,58.8,15.9,57.8,15.9z M58.5,14.9L58.5,14.9z M57.2,14.9L57.2,14.9z"/>
		<path class="st0" d="M59.8,9.2c-2.4,0-6.3-3.3-6.8-3.6c-0.2-0.2-0.2-0.5-0.1-0.7c0.2-0.2,0.5-0.2,0.7-0.1l0,0
			c1.8,1.5,5.1,3.7,6.5,3.3c0.7-0.2,1.4-0.5,2-0.9c0.5-0.4,1.2-0.6,1.8-0.4c0.3,0.1,0.4,0.4,0.3,0.6C64.3,7.8,64,8,63.7,7.9
			c0,0,0,0,0,0c-0.3-0.1-0.5,0-1.1,0.3c-0.7,0.4-1.4,0.7-2.2,0.9C60.2,9.2,60,9.3,59.8,9.2z"/>
		<path class="st0" d="M58,24.8c-0.1,0-0.2,0-0.3-0.1l-3.4-2.3c-0.1-0.1-0.2-0.3-0.2-0.4v-1.9c0-0.3,0.2-0.5,0.5-0.5
			s0.5,0.2,0.5,0.5v1.6l2.9,1.9l2.9-2.3v-1c0-0.3,0.2-0.5,0.5-0.5s0.5,0.2,0.5,0.5v1.3c0,0.2-0.1,0.3-0.2,0.4l-3.4,2.7
			C58.2,24.8,58.1,24.9,58,24.8z"/>
		<path class="st0" d="M58,35.5c-4.7,0-9.4-0.9-13.8-2.7l-0.4-0.2c-0.2-0.1-0.3-0.3-0.3-0.5c0.5-4.6,2.1-10.7,11-10.5
			c0.3,0,0.5,0.2,0.5,0.5s-0.2,0.5-0.5,0.5l0,0c-7.8-0.2-9.5,4.8-10,9.3l0,0c4.3,1.8,8.8,2.7,13.5,2.7c4.6,0.1,9.1-0.8,13.3-2.8
			c-0.4-4.9-2.1-6.6-3.6-7.8c-1.2-1-4.9-1.6-6.3-1.7c-0.3,0-0.5-0.3-0.4-0.6s0.3-0.5,0.6-0.4c0.2,0,5.2,0.6,6.8,2s3.6,3.4,4,8.9
			c0,0.2-0.1,0.4-0.3,0.5l-0.2,0.1C67.5,34.7,62.7,35.6,58,35.5z"/>
		<path class="st0" d="M58,21.8c-0.7,0-1.4-0.2-2-0.4c-2.2-1-4-3.4-4.7-6.5h-0.1c-0.8,0-1.4-0.9-1.4-2.1s0.5-2,1.2-2.1
			c0.2-3.3,0.9-5.5,2.3-6.9c1.3-1.1,2.9-1.7,4.6-1.5c4.4,0.1,6.7,2.9,7,8.4c0.7,0.4,1.1,1.2,1,2c0,1.1-0.5,2-1.3,2.1
			c-0.4,2.5-1.8,4.7-3.9,6.2C60,21.5,59,21.8,58,21.8z M51.7,13.8c0.2,0,0.4,0.2,0.5,0.4c0.5,3,2.1,5.3,4.2,6.2
			c1.3,0.5,2.8,0.4,4-0.3c1.9-1.4,3.2-3.5,3.5-5.8c0-0.2,0.2-0.4,0.4-0.4h0.3c0.2,0,0.4-0.4,0.4-1.1s-0.3-1-0.4-1.1h-0.1h-0.2
			c-0.2,0-0.4-0.2-0.4-0.5c-0.2-5.3-2.1-7.8-6-7.9c-1.5-0.2-2.9,0.3-4,1.3c-1.3,1.2-1.9,3.4-2,6.7c0,0.3-0.2,0.5-0.5,0.5
			c0,0,0,0,0,0h-0.4c-0.2,0.3-0.3,0.7-0.3,1.1c0,0.7,0.3,1,0.4,1.1L51.7,13.8L51.7,13.8z"/>
		<path class="st0" d="M14.4,16.9c-0.9,0-1.6-0.5-1.6-1.1c0-0.3,0.2-0.5,0.5-0.5c0.3,0,0.5,0.2,0.5,0.5c0.4,0.2,0.9,0.2,1.3,0
			c0-0.3,0.3-0.5,0.5-0.5s0.5,0.3,0.5,0.5l0,0C16,16.4,15.3,16.9,14.4,16.9z M15,15.8L15,15.8z M13.8,15.8L13.8,15.8z"/>
		<path class="st0" d="M17.9,9.3c-0.4,0-0.8,0-1.3-0.1c-2.8-0.4-5.4-3.3-5.5-3.5C11,5.5,11,5.2,11.2,5c0.2-0.2,0.5-0.2,0.7,0.1
			c0,0,2.4,2.8,4.9,3.1c1.8,0.2,3.1-0.1,4-1c0.6-0.7,0.9-1.5,0.9-2.4c-0.3,0.5-0.7,0.8-1.3,0.9c-0.6,0.1-1.1-0.2-1.4-0.7
			c-0.1-0.2-0.1-0.5,0.2-0.7c0.2-0.1,0.5-0.1,0.6,0.1c0.1,0.1,0.2,0.3,0.4,0.3c0.4-0.1,1-1,1.3-1.8c0-0.3,0.3-0.5,0.5-0.5
			c0.3,0,0.5,0.3,0.5,0.5c0.4,1.7,0,3.6-1.1,4.9C20.6,8.9,19.3,9.4,17.9,9.3z"/>
		<path class="st0" d="M14.4,35.5c-4.7,0-9.4-0.9-13.8-2.7l-0.4-0.2C0.1,32.6,0,32.3,0,32.1c0.5-4.6,2.1-10.8,11-10.5
			c0.3,0,0.5,0.2,0.5,0.5s-0.2,0.5-0.5,0.5l0,0c-7.8-0.1-9.5,4.8-10,9.3l0,0c4.2,1.7,8.8,2.6,13.4,2.7c3.6,0.1,7.1-0.5,10.4-1.7
			c0.3-0.1,0.5,0,0.6,0.3c0.1,0.3,0,0.5-0.3,0.6c0,0,0,0,0,0C21.7,35,18.1,35.6,14.4,35.5z"/>
		<path class="st0" d="M25.4,24.8c-0.1,0-0.3-0.1-0.4-0.1c-0.3-0.3-0.6-0.6-0.9-0.8c-1.2-1-4.9-1.6-6.3-1.7c-0.3,0-0.5-0.3-0.4-0.6
			s0.3-0.5,0.6-0.4c0.2,0,5.1,0.6,6.8,2c0.3,0.3,0.7,0.6,1,0.9c0.2,0.2,0.2,0.5,0,0.7C25.6,24.8,25.5,24.9,25.4,24.8L25.4,24.8z"/>
		<path class="st0" d="M14.5,24.8L14.5,24.8c-2.8,0-3.8-1.8-4-2.7c0,0,0-0.1,0-0.1l0.3-2.4c0-0.3,0.3-0.5,0.6-0.4s0.5,0.3,0.4,0.6
			l0,0L11.5,22c0.1,0.3,0.6,1.8,2.9,1.8l0,0c1.4,0.1,2.6-0.9,2.9-2.2L17,20.1c0-0.3,0.1-0.5,0.4-0.6s0.5,0.1,0.6,0.4l0.3,1.6
			c0,0.1,0,0.1,0,0.2C18.1,23.6,16.4,24.9,14.5,24.8z"/>
		<path class="st0" d="M14.6,21.3c-0.7,0-1.4-0.1-2.1-0.4c-2.2-1-4-3.4-4.7-6.5H7.7c-0.8,0-1.4-0.9-1.4-2.1s0.5-2,1.2-2.1
			c0.2-3.3,0.9-5.5,2.3-6.9c1.3-1.1,3-1.7,4.7-1.5c2.1-0.1,4.1,0.9,5.4,2.7C20.1,4.7,20,5,19.8,5.2c-0.2,0.2-0.5,0.1-0.7-0.1
			c0,0,0,0,0,0c-1-1.5-2.8-2.3-4.6-2.2c-1.5-0.2-2.9,0.3-4,1.3c-1.3,1.2-1.9,3.3-2,6.7c0,0.1-0.1,0.3-0.2,0.4
			c-0.1,0.1-0.2,0.1-0.4,0.1H7.6c-0.2,0.3-0.4,0.7-0.3,1.1c0,0.7,0.3,1,0.4,1.1l0.5-0.1c0.3,0,0.5,0.2,0.5,0.4
			c0.5,3,2.1,5.4,4.2,6.2c1.3,0.5,2.8,0.4,3.9-0.3c1.9-1.4,3.2-3.5,3.5-5.9c0-0.2,0.2-0.4,0.5-0.4h0.3c0.1,0,0.4-0.4,0.4-1.1
			s-0.3-1-0.4-1.1h-0.1c-0.3,0-0.5-0.2-0.5-0.4c0,0,0,0,0,0c0-0.9-0.1-1.7-0.3-2.6c-0.1-0.3,0.1-0.5,0.4-0.6C21,7.5,21.2,7.7,21.3,8
			c0.1,0.8,0.2,1.5,0.3,2.3c0.7,0.4,1.1,1.2,1,2c0,1.1-0.5,2-1.3,2.1c-0.4,2.5-1.8,4.7-3.9,6.2C16.5,21,15.5,21.3,14.6,21.3z"/>
		<path class="st0" d="M8.3,9.1C8,9.1,7.8,8.9,7.8,8.6S8,8.1,8.3,8.1c0.7,0,1.5-0.2,2-0.7c0.5-0.6,0.7-1.3,0.7-2
			c0-0.3,0.2-0.5,0.5-0.5c0.3,0,0.5,0.2,0.5,0.5c0,1-0.3,2-1,2.7C10.3,8.8,9.3,9.1,8.3,9.1z"/>
		<path class="st0" d="M36.1,15.9c-0.9,0-1.6-0.4-1.6-1.1c0-0.3,0.2-0.5,0.5-0.5c0.3,0,0.5,0.2,0.5,0.5c0.4,0.2,0.9,0.2,1.3,0
			c0-0.3,0.3-0.5,0.5-0.5s0.5,0.3,0.5,0.5l0,0C37.7,15.5,37,15.9,36.1,15.9z M36.7,14.9L36.7,14.9z M35.4,14.9L35.4,14.9z"/>
		<path class="st0" d="M40,6.5c-1,0-2.1-0.1-3.1-0.3c-2.9-0.6-5.3-0.8-5.3-0.8c-0.2,0-0.4-0.2-0.4-0.5c0-0.2-0.2-4.4,7.5-4.9
			c1-0.2,2,0.2,2.8,0.8c0.2,0.2,0.2,0.5,0,0.7s-0.5,0.2-0.7,0c-0.6-0.5-1.3-0.7-2-0.5c-5.3,0.3-6.4,2.5-6.6,3.4
			c0.9,0.1,2.8,0.4,4.9,0.8c1.5,0.3,3.1,0.4,4.6,0.1c0.3-0.1,0.5,0.1,0.6,0.4s-0.1,0.5-0.4,0.6l0,0C41.3,6.5,40.6,6.5,40,6.5z"/>
		<path class="st0" d="M41.8,6.3h-0.1c-0.7-0.2-0.6-1.1-0.5-2s0.2-2.2-0.4-2.8c-0.2-0.2-0.2-0.5,0-0.7s0.5-0.2,0.7,0c0,0,0,0,0,0.1
			c0.9,1,0.8,2.5,0.6,3.6c0,0.3-0.1,0.7,0,1c0.2,0.1,0.3,0.5,0.1,0.7C42.2,6.3,42,6.4,41.8,6.3L41.8,6.3z"/>
		<path class="st0" d="M36.2,24.8c-3.6,0-3.9-2.7-3.9-2.7v-1.9c0-0.3,0.2-0.5,0.5-0.5s0.5,0.2,0.5,0.5v1.9c0,0,0.2,1.8,2.9,1.8
			s2.9-2.1,2.9-2.2v-1.2c0-0.3,0.2-0.5,0.5-0.5s0.5,0.2,0.5,0.5v1.3C39.9,23.6,38.2,25,36.2,24.8z"/>
		<path class="st0" d="M36.2,35.5c-4.7,0-9.4-0.9-13.8-2.7l-0.4-0.2c-0.2-0.1-0.3-0.3-0.3-0.5c0.5-4.6,2.1-10.7,11-10.5
			c0.3,0,0.5,0.2,0.5,0.5s-0.2,0.5-0.5,0.5h-0.3c-7.5,0-9.2,4.9-9.7,9.3l0,0c4.2,1.7,8.8,2.6,13.4,2.7c3.6,0.1,7.1-0.5,10.5-1.7
			c0.3-0.1,0.5,0,0.6,0.3c0.1,0.3,0,0.5-0.3,0.6c0,0,0,0,0,0C43.5,35,39.9,35.6,36.2,35.5z"/>
		<path class="st0" d="M47.2,24.9c-0.1,0-0.3-0.1-0.4-0.1c-0.3-0.3-0.7-0.6-1-0.9c-1.2-1-4.9-1.6-6.3-1.7c-0.3,0-0.5-0.3-0.4-0.6
			s0.3-0.5,0.6-0.4c0.2,0,5.2,0.6,6.8,2c0.4,0.3,0.7,0.6,1.1,1c0.2,0.2,0.2,0.5,0,0.7C47.4,24.9,47.3,25,47.2,24.9L47.2,24.9z"/>
		<path class="st0" d="M36.3,21.9c-0.7,0-1.4-0.1-2.1-0.4c-2.2-1-4-3.4-4.7-6.5h-0.1c-0.8,0-1.4-0.9-1.4-2.1s0.5-2,1.2-2.1
			c0.1-3,0.8-5.1,1.9-6.5c0.2-0.2,0.5-0.2,0.7,0c0.2,0.2,0.2,0.5,0,0.7c-1.1,1.3-1.6,3.3-1.7,6.3c0,0.1-0.1,0.3-0.2,0.4
			c-0.1,0.1-0.2,0.1-0.4,0.1h-0.4c-0.3,0.3-0.4,0.6-0.4,1c0,0.7,0.3,1,0.4,1.1l0.5-0.1c0.3,0,0.5,0.2,0.5,0.4c0.5,3,2.1,5.4,4.2,6.2
			c1.3,0.5,2.8,0.4,3.9-0.3c1.9-1.4,3.2-3.5,3.5-5.9c0-0.2,0.2-0.4,0.5-0.4h0.3c0.1,0,0.4-0.4,0.4-1.1s-0.3-1-0.4-1.1h-0.1
			c-0.1,0-0.3,0-0.4-0.1c-0.1-0.1-0.2-0.2-0.2-0.4c0-1.8-0.4-3.6-1.1-5.2c-0.1-0.2,0-0.6,0.2-0.7c0.2-0.1,0.6,0,0.7,0.2
			c0.8,1.6,1.3,3.4,1.3,5.3c0.7,0.4,1.1,1.2,1,2c0,1.1-0.5,2-1.3,2.1c-0.4,2.5-1.8,4.7-3.9,6.2C38.2,21.6,37.3,21.9,36.3,21.9z"/>
		<path class="st0" d="M29.6,11.3L29.6,11.3c0,0-1.3-0.1-2.5,0c-0.1,0-0.3,0-0.4-0.2c-0.1-0.1-0.2-0.3-0.1-0.4
			c0.8-5.6,4.7-6.6,4.9-6.6C31.7,4,32,4.2,32,4.5c0.1,0.3-0.1,0.5-0.4,0.6c-0.1,0-3.2,0.8-4,5.2c1.1,0,2,0,2,0
			c0.3,0,0.5,0.2,0.5,0.5S29.9,11.3,29.6,11.3L29.6,11.3z"/>
		<path class="st0" d="M44.7,11.5c-0.7,0-1.3-0.1-2-0.2c-0.3,0-0.5-0.3-0.4-0.6c0,0,0,0,0,0c0-0.3,0.3-0.5,0.6-0.4c0,0,0,0,0,0
			c0.6,0.1,1.3,0.1,1.9,0.1l0,0c-0.3-2.3-1.4-4.4-3.2-6c-0.2-0.2-0.2-0.5-0.1-0.7c0.2-0.2,0.5-0.2,0.7-0.1l0,0
			c0.1,0.1,3.5,3,3.5,7.3c0,0.3-0.2,0.5-0.5,0.5L44.7,11.5z M45.2,11L45.2,11z"/>
	</g>
</g>
</svg>
