<?xml version="1.0" encoding="utf-8"?>
<!-- Generator: Adobe Illustrator 21.1.0, SVG Export Plug-In . SVG Version: 6.00 Build 0)  -->
<svg version="1.1" id="Calque_1" xmlns="http://www.w3.org/2000/svg" xmlns:xlink="http://www.w3.org/1999/xlink" x="0px" y="0px"
	 viewBox="0 0 29.7 26.9" style="enable-background:new 0 0 29.7 26.9;" xml:space="preserve">
<style type="text/css">
	.st0{fill:#76A8D9;}
	.st1{fill:none;stroke:#81868D;stroke-linecap:round;stroke-linejoin:round;}
</style>
<g id="Calque_2">
	<g id="Calque_1-2">
		<path class="st0" d="M18.2,3.1H12c-0.3,0-0.5-0.2-0.5-0.5s0.2-0.5,0.5-0.5h6.2c0.3,0,0.5,0.2,0.5,0.5S18.5,3.1,18.2,3.1z"/>
		<path class="st0" d="M14.5,13.8c-3.6,0.1-7.2-0.6-10.5-2c-0.2-0.1-0.3-0.4-0.2-0.7C3.9,11,4.2,10.9,4.4,11
			c3.2,1.3,6.6,1.9,10.1,1.9c3.8,0,7.6-0.6,11.2-1.9c0.3-0.1,0.5,0,0.6,0.3c0.1,0.3,0,0.5-0.3,0.6l0,0
			C22.4,13.2,18.4,13.8,14.5,13.8z"/>
		<path class="st0" d="M18.2,17.2h-7c-0.3,0-0.5-0.2-0.5-0.5s0.2-0.5,0.5-0.5h7c0.3,0,0.5,0.2,0.5,0.5S18.5,17.2,18.2,17.2z"/>
		<path class="st0" d="M18.2,19.3h-7c-0.3,0-0.5-0.2-0.5-0.5s0.2-0.5,0.5-0.5h7c0.3,0,0.5,0.2,0.5,0.5S18.5,19.3,18.2,19.3z"/>
		<path class="st1" d="M24.5,4.2"/>
		<path class="st1" d="M6.1,4.2"/>
		<path class="st0" d="M5.8,26.9c-1,0-3.2,0-3.2-2.2v-1.2c0-0.3,0.2-0.5,0.5-0.5s0.5,0.2,0.5,0.5v1.2c0,0.8,0.3,1.2,2.2,1.2
			S8,25.5,8,24.7v-1.2c0-0.3,0.2-0.5,0.5-0.5S9,23.2,9,23.4v1.2C9,26.9,6.9,26.9,5.8,26.9z"/>
		<path class="st0" d="M23.9,26.9c-1,0-3.2,0-3.2-2.2v-1.2c0-0.3,0.2-0.5,0.5-0.5s0.5,0.2,0.5,0.5v1.2c0,0.8,0.3,1.2,2.2,1.2
			s2.2-0.4,2.2-1.2v-1.2c0-0.3,0.2-0.5,0.5-0.5s0.5,0.2,0.5,0.5v1.2C27.1,26.9,25,26.9,23.9,26.9z"/>
		<path class="st0" d="M28,23.6H1.7v-0.5c-0.1-2.4,0-4.9,0.3-7.3c-1.6,0-2-0.5-2-2.2v-1c0-2.2,2.2-2.2,3.2-2.2h0.4l0.2,0.1l0.9-7.2
			C4.7,1.5,6.2,0,8,0h13.7C23.5,0,25,1.5,25,3.3l0.9,7.2l0.2-0.1h0.4c1,0,3.2,0,3.2,2.2v1c0,1.7-0.4,2.2-2,2.2
			c0.3,2.4,0.4,4.9,0.3,7.3V23.6z M2.7,22.6H27c0.1-2.3,0-4.6-0.3-6.9l-0.1-0.9h0.9c1.2,0,1.2,0,1.2-1.2v-1c0-0.8-0.3-1.2-2.2-1.2
			h-0.1l-1.3,0.8L24,3.4C24,2.1,23,1,21.7,1c0,0,0,0,0,0H8C6.7,1,5.7,2.1,5.7,3.3l-1.1,8.8l-1.3-0.8H3.2c-1.9,0-2.2,0.4-2.2,1.2v1
			c0,1.2,0,1.2,1.2,1.2h0.9L3,15.8C2.7,18.1,2.6,20.3,2.7,22.6z"/>
		<path class="st0" d="M7.5,20c-1.5,0-2.8-1.2-2.8-2.8c0-1.5,1.2-2.7,2.8-2.7s2.8,1.2,2.8,2.7C10.2,18.8,9,20,7.5,20z M7.5,15.5
			c-1,0-1.8,0.8-1.8,1.7S6.5,19,7.5,19s1.8-0.8,1.8-1.8C9.2,16.3,8.5,15.5,7.5,15.5z"/>
		<path class="st0" d="M22.2,20c-1.5,0-2.8-1.2-2.8-2.8c0-1.5,1.2-2.7,2.8-2.7s2.8,1.2,2.8,2.7C24.9,18.8,23.7,20,22.2,20z
			 M22.2,15.5c-1,0-1.8,0.8-1.8,1.7s0.8,1.8,1.8,1.8s1.8-0.8,1.8-1.8S23.1,15.5,22.2,15.5z"/>
	</g>
</g>
</svg>
