<?xml version="1.0" encoding="utf-8"?>
<!-- Generator: Adobe Illustrator 21.1.0, SVG Export Plug-In . SVG Version: 6.00 Build 0)  -->
<svg version="1.1" id="Calque_1" xmlns="http://www.w3.org/2000/svg" xmlns:xlink="http://www.w3.org/1999/xlink" x="0px" y="0px"
	 viewBox="0 0 32.9 34.2" style="enable-background:new 0 0 32.9 34.2;" xml:space="preserve">
<style type="text/css">
	.st0{fill:#6DA5D7;}
</style>
<g id="Calque_2">
	<g id="Calque_1-2">
		<path class="st0" d="M26,34.2c-0.3,0-0.5-0.2-0.5-0.5l-0.9-8.1l-2.5,0.1l2-9.6c0-0.3,0.3-0.4,0.6-0.4c0,0,0,0,0,0
			c0.3,0.1,0.4,0.3,0.4,0.6c0,0,0,0,0,0l-1.8,8.4l2.1-0.1l1,9C26.6,33.9,26.4,34.1,26,34.2L26,34.2z"/>
		<path class="st0" d="M11.4,22h-0.1c-0.2-0.1-0.3-0.2-0.4-0.5c-0.2-5.5-0.6-11.6-0.8-12.2C9.3,8.6,8.4,8.1,7.4,7.9
			C7.1,7.8,7,7.5,7,7.2s0.4-0.4,0.6-0.4C8.2,7,10.5,7.8,11,8.8c0.4,0.8,0.7,7.6,0.9,11.2l1.6-2.2c0.3-0.7,1.4-1,1.6-1h0.1h2.9h0.1
			c0.6,0.2,1.2,0.6,1.6,1.1c0.1,0.3,0.7,1.2,1.2,2.1l2.2-9.9c0-0.1,0-0.1,0.1-0.2c0.6-0.8,1.6-1.1,2.6-1c0.3,0,0.5,0.3,0.4,0.6
			c0,0.3-0.3,0.5-0.6,0.4l0,0c-0.6-0.1-1.2,0.1-1.6,0.5l-2.5,11c-0.1,0.3-0.3,0.4-0.6,0.4c-0.1,0-0.3-0.1-0.3-0.2
			c-0.1-0.1-1.6-2.6-1.9-3.2c-0.2-0.3-0.6-0.5-0.9-0.6h-2.7c-0.4,0.1-0.7,0.3-1,0.6l-2.5,3.4C11.7,21.9,11.6,22,11.4,22z"/>
		<path class="st0" d="M32,21.3c-0.3,0-0.5-0.2-0.5-0.5L31,10.6c0-0.1,0-0.1,0-0.2c-0.5-0.7-1.7-0.6-1.7-0.6c-0.3,0-0.5-0.2-0.5-0.5
			s0.2-0.5,0.5-0.5c1-0.1,2,0.3,2.7,1.1c0.1,0.2,0.2,0.4,0.2,0.6l0.6,10.3c0,0.3-0.2,0.5-0.5,0.5c0,0,0,0,0,0L32,21.3z"/>
		<path class="st0" d="M29,34.2L29,34.2c-0.3,0-0.5-0.3-0.5-0.5l1-9l2.1,0.1l-0.8-3.8c-0.1-0.3,0.1-0.5,0.4-0.6s0.5,0.1,0.6,0.4l1,5
			l-2.5-0.1l-0.9,8.1C29.5,34,29.3,34.2,29,34.2z"/>
		<path class="st0" d="M2.3,34.2L2.3,34.2c-0.3,0-0.5-0.2-0.5-0.5V20.9l-1.5-1.5v-0.2C0.1,17.1-0.3,9.8,0.4,8.8s3-1.8,3.3-1.9
			C3.9,6.8,4.2,7,4.3,7.3C4.4,7.6,4.2,7.8,4,7.9c-1,0.2-2,0.7-2.7,1.4C0.9,10,1,14.7,1.3,19l1.5,1.5v13.2C2.8,34,2.6,34.2,2.3,34.2z
			"/>
		<path class="st0" d="M9.1,34.2c-0.3,0-0.5-0.2-0.5-0.5V20.9c0-0.3,0.2-0.5,0.5-0.5s0.5,0.2,0.5,0.5v12.8C9.6,34,9.3,34.2,9.1,34.2
			z"/>
		<path class="st0" d="M18.7,34.2L18.7,34.2c-0.3,0-0.5-0.3-0.5-0.5c0,0,0,0,0,0l0.5-7.8c0-0.3,0.3-0.5,0.5-0.5
			c0.3,0,0.5,0.3,0.5,0.5l-0.5,7.8C19.2,34,19,34.2,18.7,34.2C18.7,34.2,18.7,34.2,18.7,34.2z"/>
		<path class="st0" d="M14.4,34.2c-0.3,0-0.5-0.2-0.5-0.5l-0.8-7.7c0-0.3,0.2-0.5,0.4-0.5c0.3,0,0.5,0.2,0.6,0.4l0.8,7.7
			C15,33.9,14.8,34.2,14.4,34.2C14.5,34.2,14.5,34.2,14.4,34.2L14.4,34.2z"/>
		<path class="st0" d="M16.6,17.5c-1.5-0.1-2.7-1.5-2.5-3c-0.1-1.5,1-2.9,2.5-3c1.5,0.1,2.7,1.5,2.5,3C19.3,16,18.2,17.4,16.6,17.5z
			 M16.6,12.6c-1,0.1-1.7,1-1.5,2c-0.1,1,0.6,1.9,1.5,2c1-0.1,1.6-1,1.5-2C18.3,13.6,17.6,12.7,16.6,12.6L16.6,12.6z"/>
		<path class="st0" d="M5.6,8.9c-0.1,0-0.1,0-0.2,0L3.8,8.2C3.6,8.1,3.5,8,3.5,7.7V6.1C2.9,5.4,2.6,4.5,2.6,3.6
			C2.5,1.8,3.8,0.2,5.7,0c1.8,0.2,3.2,1.8,3.1,3.6C8.8,4.5,8.5,5.3,8,6v1.8C8,8,7.9,8.2,7.7,8.2L5.8,8.9L5.6,8.9z M4.5,7.4l1.1,0.4
			L7,7.4V5.8c0-0.1,0-0.2,0.1-0.3C7.5,5,7.8,4.3,7.8,3.6C7.9,2.3,7,1.2,5.7,1C4.4,1.2,3.5,2.3,3.6,3.6c0,0.7,0.3,1.4,0.7,2
			C4.5,5.7,4.5,5.9,4.5,6V7.4z"/>
		<path class="st0" d="M27.6,12.9l-3-2.6l1.2-1.2V8.4h-1V6c0-0.1,0-0.2,0-0.3c-0.1-1.7,1.1-3.1,2.7-3.2c0,0,0,0,0,0
			c1.7,0.1,2.9,1.6,2.8,3.2c0,0,0,0,0,0c0,0.1,0,0.2,0,0.3v2.5h-0.9v0.5l1,1.5L27.6,12.9z M26,10.3l1.6,1.3l1.5-1.4l-0.6-0.9
			l-0.1-1.1l0.3-0.8h0.6V5.9c0-0.1,0-0.1,0-0.2c0.1-1.1-0.6-2.1-1.7-2.2c0,0,0,0,0,0c-1.1,0.1-1.9,1.1-1.8,2.2c0,0,0,0,0,0
			c0,0.1,0,0.1,0,0.2v1.5h0.6l0.3,0.8v1.2L26,10.3z"/>
	</g>
</g>
</svg>
