<?xml version="1.0" encoding="utf-8"?>
<!-- Generator: Adobe Illustrator 21.1.0, SVG Export Plug-In . SVG Version: 6.00 Build 0)  -->
<svg version="1.1" id="Calque_1" xmlns="http://www.w3.org/2000/svg" xmlns:xlink="http://www.w3.org/1999/xlink" x="0px" y="0px"
	 viewBox="0 0 35.1 24" style="enable-background:new 0 0 35.1 24;" xml:space="preserve">
<style type="text/css">
	.st0{fill:#6DA5D7;}
</style>
<title>icon-arme</title>
<g id="Calque_2">
	<g id="Calque_1-2">
		<path class="st0" d="M8.3,24H3.1c-1.1,0-2-0.5-2.7-1.4c-0.6-1-0.5-2.3,0.1-3.2c1.5-3.3,1.9-4.1,2.8-6c0.2-0.5,0.4-1,0.4-1.6
			c0-1-1.2-1.4-1.9-1.5c-0.7-0.2-1.1-0.8-1.1-1.5c0-0.7,0.5-1.3,1.2-1.5H2c0.9-0.2,0.9-0.2,0.9-0.8c0-0.3-0.1-0.6-0.2-0.9
			C2.3,4.7,2.1,3.9,2.1,3.1c0-1.4,1.6-1.9,2.8-2c0.3-0.6,0.8-1,1.5-1.1c0.9,0.1,1.8,0.5,2.5,1.1h20.5L30,0.1h3.7l0.1,0.9h1.4v9h-9.6
			l-0.7,1.2h-3.2l-2.7,5h-6.6c-0.2,1-0.9,3.5-1.1,4.9v0.1C11.2,23,10.9,24,8.3,24z M6.5,1L6.5,1C6.2,1,5.9,1.4,5.7,1.8L5.5,2H5.2
			c0,0-2.1,0.1-2.1,1c0,0.7,0.1,1.4,0.4,2c0.2,0.4,0.3,0.9,0.3,1.4C3.8,7.8,3.4,8,2.2,8.2H2.1c-0.2,0-0.4,0.2-0.4,0.5
			c0,0.2,0.1,0.5,0.3,0.5c1.6,0.3,2.6,1.2,2.7,2.5c0,0.7-0.2,1.4-0.5,2.1c-1,1.9-1.4,2.7-2.8,6c-0.4,0.7-0.5,1.6-0.1,2.3
			C1.7,22.7,2.4,23,3.1,23h5.2c1.8,0,1.9-0.3,2.1-1.9V21c0.2-1.8,1.1-5.2,1.2-5.4l0.1-0.4h6.8l2.7-5h3.2L25,9.1h9.1v-7h-1.3
			l-0.1-0.9h-2.2l-0.6,0.9H8.6L8.4,2C7.9,1.5,7.2,1.2,6.5,1z"/>
		<path class="st0" d="M17.9,13.4l-4.6-0.1l-0.1-0.1c-0.7-0.5-1-1.4-0.8-2.2c0.2-1.1,1.2-1.9,2.3-1.8H20L17.9,13.4z M13.7,12.3
			l3.6,0.1l1.1-2.2h-3.6c-0.9,0-1.1,0.2-1.4,1.2C13.3,11.7,13.4,12.1,13.7,12.3z"/>
		<path class="st0" d="M6.6,7.8c-0.1,0-0.2,0-0.2-0.1C6.1,7.7,6,7.4,6.1,7.1l1.8-3.4C8,3.5,8.3,3.4,8.6,3.5c0.2,0.1,0.3,0.4,0.2,0.7
			L7,7.6C6.9,7.7,6.8,7.8,6.6,7.8z"/>
		<path class="st0" d="M8.6,7.8c-0.1,0-0.2,0-0.2-0.1C8.1,7.7,8,7.4,8.1,7.1l1.8-3.4c0.1-0.2,0.4-0.3,0.7-0.2
			c0.2,0.1,0.3,0.4,0.2,0.7L9,7.6C8.9,7.7,8.8,7.8,8.6,7.8z"/>
	</g>
</g>
</svg>
