<?xml version="1.0" encoding="utf-8"?>
<!-- Generator: Adobe Illustrator 21.1.0, SVG Export Plug-In . SVG Version: 6.00 Build 0)  -->
<svg version="1.1" id="Calque_1" xmlns="http://www.w3.org/2000/svg" xmlns:xlink="http://www.w3.org/1999/xlink" x="0px" y="0px"
	 viewBox="0 0 57.3 59.6" style="enable-background:new 0 0 57.3 59.6;" xml:space="preserve">
<style type="text/css">
	.st0{fill:#76A8D9;}
</style>
<g id="Calque_2">
	<g id="Calque_1-2">
		<path class="st0" d="M45.6,59.6c-0.3,0-0.5-0.2-0.5-0.5l-1.6-14.7l-4.3,0.1l3.5-16.5c0-0.3,0.3-0.4,0.6-0.4c0,0,0,0,0,0
			c0.3,0.1,0.4,0.3,0.4,0.6c0,0,0,0,0,0l-3.2,15.3l3.9-0.1L46.1,59C46.2,59.3,46,59.6,45.6,59.6L45.6,59.6z"/>
		<path class="st0" d="M19.8,38.1h-0.1c-0.2-0.1-0.3-0.2-0.4-0.5c-0.3-7.9-1-20.7-1.5-21.8s-3.3-2.2-5-2.7c-0.3-0.1-0.4-0.4-0.4-0.6
			c0.1-0.3,0.4-0.4,0.6-0.4c0.5,0.1,4.8,1.5,5.6,3.2c0.7,1.4,1.3,15.8,1.5,20.7l3.5-4.8c0.5-1.1,2.4-1.6,2.6-1.7h0.1h5.1h0.1
			c1,0.3,2,0.9,2.6,1.8c0.3,0.7,1.8,3.1,2.7,4.5l4.1-18.4c0-0.1,0-0.1,0.1-0.2c1.4-2,4.2-1.7,4.3-1.6c0.3,0,0.5,0.3,0.4,0.6
			c0,0.3-0.3,0.5-0.6,0.4c0,0-2.2-0.3-3.3,1.1l-4.4,19.5c0,0.2-0.2,0.3-0.4,0.4c-0.2,0-0.4-0.1-0.5-0.2c-0.1-0.2-2.8-4.7-3.3-5.7
			c-0.5-0.6-1.2-1-1.9-1.2h-5c-0.5,0.1-1.7,0.6-2,1.2l-4.4,6C20.1,38,19.9,38.1,19.8,38.1z"/>
		<path class="st0" d="M56.2,36.9c-0.3,0-0.5-0.2-0.5-0.5l-1-18.1c0-0.1,0-0.3-0.1-0.4c-1-1.5-3.5-1.3-3.5-1.3
			c-0.3,0-0.5-0.2-0.5-0.5c0-0.3,0.2-0.5,0.5-0.5c0,0,0,0,0,0c0.1,0,3.1-0.2,4.4,1.8c0.1,0.3,0.2,0.6,0.2,0.9l1,18.1
			C56.8,36.6,56.5,36.9,56.2,36.9C56.3,36.9,56.3,36.9,56.2,36.9L56.2,36.9z"/>
		<path class="st0" d="M50.9,59.6L50.9,59.6c-0.3,0-0.5-0.3-0.5-0.5l1.7-15.6l3.9,0.1l-1.5-7.1c-0.1-0.3,0.1-0.5,0.4-0.6
			s0.5,0.1,0.6,0.4l1.8,8.3L53,44.5l-1.6,14.7C51.4,59.4,51.2,59.6,50.9,59.6z"/>
		<path class="st0" d="M3.7,59.6L3.7,59.6c-0.3,0-0.5-0.2-0.5-0.5V36.4l-2.6-2.6v-0.2c-0.2-2.7-1.2-16.5,0.1-18.3s5.4-3.1,5.6-3.1
			c0.3-0.1,0.6,0.1,0.6,0.4c0.1,0.3-0.1,0.6-0.4,0.6c-1.1,0.3-4.1,1.4-5,2.8c-0.8,1.2-0.4,11.2,0.1,17.5L4.2,36v23.1
			C4.2,59.4,4,59.6,3.7,59.6z"/>
		<path class="st0" d="M15.6,59.6c-0.3,0-0.5-0.2-0.5-0.5V36.5c0-0.3,0.2-0.5,0.5-0.5c0.3,0,0.5,0.2,0.5,0.5v22.6
			C16.1,59.4,15.9,59.6,15.6,59.6L15.6,59.6z"/>
		<path class="st0" d="M32.6,59.6L32.6,59.6c-0.3,0-0.5-0.3-0.5-0.5c0,0,0,0,0,0L33,45.3c0-0.3,0.2-0.5,0.5-0.5c0,0,0,0,0,0
			c0.3,0,0.5,0.3,0.5,0.5c0,0,0,0,0,0l-0.9,13.8C33.1,59.4,32.9,59.6,32.6,59.6z"/>
		<path class="st0" d="M25.1,59.6c-0.3,0-0.5-0.2-0.5-0.5l-1.3-13.5c0-0.3,0.2-0.5,0.5-0.5s0.5,0.2,0.5,0.5l1.3,13.5
			C25.6,59.3,25.4,59.6,25.1,59.6C25.2,59.6,25.2,59.6,25.1,59.6L25.1,59.6z"/>
		<path class="st0" d="M29,30.1c-2.2,0-4.1-2.2-4.1-4.9s1.8-4.9,4.1-4.9s4.1,2.2,4.1,4.9S31.2,30.1,29,30.1z M29,21.4
			c-1.7,0-3.1,1.7-3.1,3.9s1.4,3.9,3.1,3.9s3.1-1.7,3.1-3.9S30.7,21.4,29,21.4z"/>
		<path class="st0" d="M11.9,13.8c-0.3,0-0.5-0.2-0.5-0.5V9.9c0-0.1,0-0.2,0.1-0.3L12,9c0.8-0.9,1.7-1.9,1.7-3c0-2.8-1.8-5-4-5
			s-4,2.2-4,5c0,1.3,1.2,2.5,2.1,3.4L8,9.8c0.1,0.1,0.1,0.2,0.1,0.3v3.2c0,0.3-0.2,0.5-0.5,0.5s-0.5-0.2-0.5-0.5v-3L7,10.1
			C6,9.1,4.6,7.7,4.6,6c0-3.3,2.2-6,5-6s5,2.7,5,6c0,1.4-1.1,2.7-2,3.7l-0.4,0.4v3.2C12.3,13.5,12.1,13.8,11.9,13.8z"/>
		<path class="st0" d="M46,16.6c-0.3,0-0.5-0.2-0.5-0.5v-1.7l-0.1-0.2h-1.6v-3.9c0-0.2,0-0.3,0-0.5c0-3,2-5.4,4.5-5.4
			s4.5,2.4,4.5,5.4c0,0.2,0,0.3,0,0.5v0.1v3.8h-1.6l-0.1,0.2l0.1,1.4c0,0.3-0.2,0.5-0.5,0.5c-0.3,0-0.5-0.2-0.5-0.4l-0.2-1.6l0.4-1
			h1.2v-3.1c0-0.1,0-0.3,0-0.4c0-2.4-1.6-4.4-3.5-4.4s-3.5,2-3.5,4.4c0,0.1,0,0.3,0,0.4v0.1v2.9h1.4l0.4,1.1v1.8
			C46.5,16.4,46.3,16.6,46,16.6L46,16.6z"/>
	</g>
</g>
</svg>
