<svg xmlns="http://www.w3.org/2000/svg" viewBox="0 0 33.83 34.29"><defs><style>.cls-1{fill:#81868d;}.cls-2{fill:none;stroke:#81868d;stroke-linecap:square;stroke-miterlimit:10;stroke-width:3px;}</style></defs><title>icon-colis</title><g id="Calque_2" data-name="Calque 2"><g id="Calque_1-2" data-name="Calque 1"><path class="cls-1" d="M16.84,34.29.34,28.62,0,28.15V4.82l.66-.47L17.16,10l.34.47V33.82ZM1,27.79l15.5,5.32V10.84L1,5.52Z"/><path class="cls-1" d="M16.83,34.29l-.66-.47V10.48l.37-.48L33.2,5.33l.63.48V28.15l-.34.47Zm.34-23.43V33.12l15.67-5.33V6.48Z"/><polygon class="cls-1" points="32.84 6.37 16.98 1 1.05 5.38 0.79 4.42 16.87 0 17.16 0.01 33.16 5.43 32.84 6.37"/><path class="cls-2" d="M26.17,10.65"/><path class="cls-2" d="M9.83,1.49"/><polygon class="cls-1" points="8.58 3.07 11.92 1.98 26.83 7.4 26.83 11.9 24.25 12.61 24.25 8.65 8.58 3.07"/></g></g></svg>