<?xml version="1.0" encoding="utf-8"?>
<!-- Generator: Adobe Illustrator 21.1.0, SVG Export Plug-In . SVG Version: 6.00 Build 0)  -->
<svg version="1.1" id="Calque_1" xmlns="http://www.w3.org/2000/svg" xmlns:xlink="http://www.w3.org/1999/xlink" x="0px" y="0px"
	 viewBox="0 0 49.8 58.4" style="enable-background:new 0 0 49.8 58.4;" xml:space="preserve">
<style type="text/css">
	.st0{fill:#6DA5D7;}
</style>
<title>icon-expert</title>
<g id="Calque_2">
	<g id="Calque_1-2">
		<path class="st0" d="M28.2,12.3c-4.2,0-11.4-6-11.7-6.2c-0.2-0.2-0.2-0.5-0.1-0.7c0.2-0.2,0.5-0.2,0.7-0.1
			c2.3,1.9,8.9,6.7,11.8,5.9c1.2-0.4,2.4-0.9,3.5-1.5c0.8-0.7,1.9-0.9,3-0.7c0.3,0.1,0.4,0.4,0.4,0.6c-0.1,0.3-0.4,0.4-0.6,0.4l0,0
			c-0.7-0.2-1.2,0-2.2,0.6c-1.2,0.7-2.4,1.2-3.7,1.6C28.8,12.3,28.5,12.3,28.2,12.3z"/>
		<path class="st0" d="M25,58.4c-8.2,0-16.4-1.6-24-4.8l-0.7-0.3C0.1,53.3,0,53.1,0,52.9c0.8-7.9,3.7-18.5,19-18.2
			c0.3,0,0.5,0.2,0.5,0.5s-0.2,0.5-0.5,0.5l0,0C4.8,35.5,1.9,44.5,1,52.6l0.3,0.1c7.5,3.1,15.6,4.7,23.7,4.7c12.1,0,18-2.5,23.6-5
			h0.1c-0.8-8.9-3.8-12-6.5-14.3c-2.6-2.2-11.2-3.2-11.2-3.2c-0.3,0-0.5-0.3-0.4-0.6s0.3-0.5,0.6-0.4c0.4,0,8.9,1,11.8,3.4
			s6.2,5.8,6.9,15.3c0,0.2-0.1,0.4-0.3,0.5L49,53.3C43.3,55.8,37.3,58.4,25,58.4z"/>
		<path class="st0" d="M25,43.4c-0.1,0-0.2,0-0.3-0.1l-4.8-3.8c-0.2-0.2-0.3-0.5-0.1-0.7c0.2-0.2,0.5-0.3,0.7-0.1l4.4,3.5l4.2-3.5
			c0.2-0.2,0.5-0.1,0.7,0.1c0.2,0.2,0.1,0.5-0.1,0.7l-4.5,3.8C25.2,43.4,25.1,43.4,25,43.4z"/>
		<path class="st0" d="M19.4,22.4c-2.6,0-4.6-2.1-4.6-4.6c0-2.6,2.1-4.6,4.6-4.6c2.6,0,4.6,2.1,4.6,4.6c0,0,0,0,0,0
			C24,20.4,21.9,22.4,19.4,22.4z M19.4,14.2c-2,0-3.6,1.6-3.6,3.6s1.6,3.6,3.6,3.6c2,0,3.6-1.6,3.6-3.6c0,0,0,0,0,0
			C23,15.8,21.4,14.2,19.4,14.2z"/>
		<path class="st0" d="M30.9,22.4c-2.6,0-4.6-2.1-4.6-4.6c0-2.6,2.1-4.6,4.6-4.6c2.6,0,4.6,2.1,4.6,4.6c0,0,0,0,0,0
			C35.5,20.4,33.4,22.4,30.9,22.4z M30.9,14.2c-2,0-3.6,1.6-3.6,3.6c0,2,1.6,3.6,3.6,3.6c2,0,3.6-1.6,3.6-3.6c0,0,0,0,0,0
			C34.5,15.8,32.9,14.2,30.9,14.2z"/>
		<path class="st0" d="M27.2,16.4c-0.3,0-0.5-0.2-0.5-0.5c0-0.8-0.7-1.5-1.5-1.5s-1.5,0.7-1.5,1.5l0,0c0,0.3-0.2,0.5-0.5,0.5
			s-0.5-0.2-0.5-0.5c0-1.4,1.1-2.5,2.5-2.5s2.5,1.1,2.5,2.5C27.7,16.2,27.5,16.4,27.2,16.4z"/>
		<path class="st0" d="M24.7,24.9c-1.4,0-2.5-0.6-2.5-1.5c0-0.3,0.2-0.5,0.5-0.5s0.5,0.2,0.5,0.5c0,0.1,0.5,0.5,1.5,0.5
			s1.5-0.4,1.5-0.5c0-0.3,0.2-0.5,0.5-0.5s0.5,0.2,0.5,0.5C27.2,24.3,26.1,24.9,24.7,24.9z"/>
		<path class="st0" d="M25,39.7c-0.1,0-0.2,0-0.3-0.1l-6-4c-0.2-0.1-0.2-0.3-0.2-0.5l0.5-4.3c0-0.3,0.3-0.5,0.5-0.4
			c0.3,0,0.5,0.3,0.5,0.5c0,0,0,0,0,0.1l-0.5,4l5.5,3.6l5.5-4.3L30,31.7c0-0.3,0.1-0.5,0.4-0.6s0.5,0.1,0.6,0.4l0.5,2.8
			c0,0.2,0,0.4-0.2,0.5l-6,4.8C25.2,39.6,25.1,39.7,25,39.7z"/>
		<path class="st0" d="M25.2,33.4c-1.2,0-2.4-0.2-3.5-0.7c-3.9-1.6-7-6-8.1-11.5l-0.5,0l0,0c-1.2,0-2-1.4-2-3.2s0.9-3.2,2-3.2h0.2
			c0.2-5.9,1.5-9.8,3.9-12.1c1.9-1.8,4.5-2.7,7.9-2.6c7.6,0.2,11.4,5,11.9,14.7c1,0.2,1.8,1.5,1.8,3.2s-0.9,3.2-2,3.2h-0.2
			c-1,4.8-3.5,8.9-6.8,10.9C28.5,33,26.8,33.4,25.2,33.4z M14.1,20.1c0.2,0,0.4,0.2,0.5,0.4c0.9,5.4,3.8,9.7,7.5,11.3
			c2.4,1,5.1,0.8,7.3-0.6c3.2-1.9,5.5-5.8,6.4-10.6c0-0.2,0.2-0.4,0.5-0.4h0.6c0.4,0,1-0.9,1-2.2s-0.6-2.2-1-2.2h-0.2
			c-0.3,0-0.5-0.2-0.5-0.4c0,0,0,0,0,0C35.8,5.7,32.3,1.2,25.2,1c-3.1-0.1-5.5,0.7-7.3,2.3c-2.3,2.2-3.5,6-3.6,12
			c0,0.1-0.1,0.3-0.2,0.4c-0.1,0.1-0.2,0.1-0.4,0.1h-0.6c-0.4,0-1,0.9-1,2.2s0.6,2.2,1,2.2L14.1,20.1L14.1,20.1z"/>
	</g>
</g>
</svg>
