<?xml version="1.0" encoding="utf-8"?>
<!-- Generator: Adobe Illustrator 23.0.1, SVG Export Plug-In . SVG Version: 6.00 Build 0)  -->
<svg version="1.1" xmlns="http://www.w3.org/2000/svg" xmlns:xlink="http://www.w3.org/1999/xlink" x="0px" y="0px"
	 viewBox="0 0 200 200" style="enable-background:new 0 0 200 200;" xml:space="preserve">
<style type="text/css">
	.st0{fill:#007CB7;}
</style>
<g id="Calque_2">
</g>
<g id="Calque_1">
	<path class="st0" d="M187,2H12C6.5,2,2,6.5,2,12v175c0,5.5,4.5,10,10,10h175c5.5,0,10-4.5,10-10V12C197,6.5,192.5,2,187,2z
		 M77,132.1L77,132.1H60.7V81.5H77V132.1z M69.1,74.3L69.1,74.3c-5.8,0-9.5-4.1-9.5-9c0-5,3.8-8.9,9.6-8.9s9.4,3.9,9.5,8.9
		C78.7,70.2,75,74.3,69.1,74.3z M140.1,132.1h-16.2v-27.4c0-6.9-3.5-11.5-9.7-11.5c-4.7,0-7.9,3.2-9.2,6.2c-0.4,1.1-1,2.6-1,4.1
		v28.6H87c0,0,0.2-45.2,0-50.6h17v6.7c1.8-3.5,6.9-8.4,15.9-8.4c11.2,0,20.2,7.3,20.2,23V132.1z"/>
</g>
</svg>
